<svg xmlns="http://www.w3.org/2000/svg" viewBox="0 0 128 128" role="img" aria-label="Apple">
  <title>Apple</title>
    <style>.detail { fill: none; }</style>
  <style>svg &gt; g:first-of-type { fill: #e60000; }</style>
  <rect width="128" height="128" fill="#fff"/>
  <g fill="#fff" stroke="#111" stroke-width="4" stroke-linecap="round" stroke-linejoin="round"><path d="M64 47q-23-16-33 5-9 26 10 43 10 8 23-1 13 9 23 1 19-17 10-43-10-21-33-5Z"/><path d="M64 48q-4-15 6-23m-4 17q12-14 22-8-7 10-22 11"/></g>
  <g class="detail" stroke-linecap="round" stroke-linejoin="round">
    <path d="M42 59q3-10 13-12-4 7-4 14-5-2-9-2Z" fill="#fff" stroke="none"/>
    <path d="M69 35q10-11 19-7-5 8-14 12Z" fill="#ffd500" stroke="#111" stroke-width="2"/>
    <path d="M46 82q9 8 19 7" fill="none" stroke="#111" stroke-width="2"/>
  </g>
</svg>
