<svg xmlns="http://www.w3.org/2000/svg" viewBox="0 0 128 128" role="img" aria-label="Carrot">
  <title>Carrot</title>
    <style>.detail { fill: none; }</style>
  <style>svg &gt; g:first-of-type { fill: #ffd500; }</style>
  <rect width="128" height="128" fill="#fff"/>
  <g fill="#fff" stroke="#111" stroke-width="4" stroke-linecap="round" stroke-linejoin="round"><path d="M43 48q20 6 42-4-2 31-19 65-5 10-9 0Q42 76 43 48Z"/><path d="M60 45Q49 24 38 24q4 15 19 24m7-3q-1-25 13-31 3 19-8 33m9 0q9-17 21-15-7 15-20 21"/><path d="m51 63 17 3m-13 10 12 2" fill="none" stroke="#111" stroke-width="3"/></g>
  <g class="detail">
    <path d="M50 57q7 3 13 2m-9 10q5 3 10 2m-8 10q4 2 7 2" fill="none" stroke="#e60000" stroke-width="2" stroke-linecap="round"/>
    <path d="M50 52q4 13 7 25" fill="none" stroke="#fff" stroke-width="2" stroke-linecap="round"/>
  </g>
</svg>
