<svg xmlns="http://www.w3.org/2000/svg" viewBox="0 0 128 128" role="img" aria-label="Lettuce">
  <title>Lettuce</title>
    <style>.detail { fill: none; }</style>
  <style>svg &gt; g:first-of-type { fill: #ffd500; }</style>
  <rect width="128" height="128" fill="#fff"/>
  <g fill="#fff" stroke="#111" stroke-width="4" stroke-linecap="round" stroke-linejoin="round"><path d="M64 40q-21-18-34 1-13 18 3 31-12 21 7 28 15 7 24-7 12 15 27 5 15-11 3-27 16-15 0-31-15-14-30 0Z"/><path d="M64 43q-11 21 0 50m-1-31q-15-13-23-10m24 19q16-15 25-10m-26 21q-12 12-20 9" fill="none" stroke="#111" stroke-width="3"/></g>
  <g class="detail">
    <path d="M63 49q-7 15 0 34m-1-23q-9-8-16-7m17 17q10-10 17-7" fill="none" stroke="#fff" stroke-width="2" stroke-linecap="round"/>
    <path d="M39 70q-2 10 5 16m43-14q6 8 1 14" fill="none" stroke="#e60000" stroke-width="2" stroke-linecap="round"/>
  </g>
</svg>
