<svg xmlns="http://www.w3.org/2000/svg" viewBox="0 0 128 128" role="img" aria-label="Bunch Of Swiss Chard">
  <title>Bunch Of Swiss Chard</title>
    <style>.detail { fill: none; }</style>
  <style>svg &gt; g:first-of-type { fill: #e60000; }</style>
  <rect width="128" height="128" fill="#fff"/>
  <g fill="#fff" stroke="#111" stroke-width="4" stroke-linecap="round" stroke-linejoin="round"><path d="M61 96 47 47q-20-19-28-6 7 22 31 19L45 34q-2-18 10-19 11 14 2 31l7 47 10-48Q68 27 81 22q10 13-1 29 22-11 32 1-13 19-37 11Z"/><path d="M63 96 42 56m22 40 3-44m-4 44 30-37" fill="none" stroke="#111" stroke-width="4"/></g>
  <g class="detail">
    <path d="M60 89 47 50m17 39 3-37m-2 37 25-31" fill="none" stroke="#fff" stroke-width="2.5" stroke-linecap="round"/>
    <path d="M61 88 48 54m18 31 3-29m0 29 19-25" fill="none" stroke="#ffd500" stroke-width="2" stroke-linecap="round"/>
  </g>
</svg>
